REM DIRINDEX 1\2,1\3,1\4,1\6,1\5\7,1\5\8
REM DIRNAME folder01,folder02,folder03,folder04,folder05,folder06,folder07,folder08
TITLE ""
FILE "DB4500_5th_6C_32.mp3" MP3
  TRACK 01 AUDIO
    TITLE "0:"
    INDEX 01 00:00:00
  TRACK 02 AUDIO
    TITLE "2:cjc114_4361"
    INDEX 01 00:00:01
  TRACK 03 AUDIO
    TITLE "0:"
    INDEX 01 00:01:13
  TRACK 04 AUDIO
    TITLE "3:cjc114_4362"
    INDEX 01 00:01:22
  TRACK 05 AUDIO
    TITLE "0:"
    INDEX 01 00:02:51
  TRACK 06 AUDIO
    TITLE "4:cjc114_4363"
    INDEX 01 00:02:65
  TRACK 07 AUDIO
    TITLE "0:"
    INDEX 01 00:05:71
  TRACK 08 AUDIO
    TITLE "2:cjc114_4364"
    INDEX 01 00:06:35
  TRACK 09 AUDIO
    TITLE "0:"
    INDEX 01 00:07:41
  TRACK 10 AUDIO
    TITLE "3:cjc114_4365"
    INDEX 01 00:07:56
  TRACK 11 AUDIO
    TITLE "0:"
    INDEX 01 00:08:68
  TRACK 12 AUDIO
    TITLE "4:cjc114_4366"
    INDEX 01 00:09:08
  TRACK 13 AUDIO
    TITLE "0:"
    INDEX 01 00:14:43
  TRACK 14 AUDIO
    TITLE "2:cjc114_4367"
    INDEX 01 00:15:05
  TRACK 15 AUDIO
    TITLE "0:"
    INDEX 01 00:15:70
  TRACK 16 AUDIO
    TITLE "3:cjc114_4368"
    INDEX 01 00:16:08
  TRACK 17 AUDIO
    TITLE "0:"
    INDEX 01 00:17:35
  TRACK 18 AUDIO
    TITLE "4:cjc114_4369"
    INDEX 01 00:17:49
  TRACK 19 AUDIO
    TITLE "0:"
    INDEX 01 00:19:69
  TRACK 20 AUDIO
    TITLE "2:cjc114_4370"
    INDEX 01 00:20:32
  TRACK 21 AUDIO
    TITLE "0:"
    INDEX 01 00:21:33
  TRACK 22 AUDIO
    TITLE "3:cjc114_4371"
    INDEX 01 00:21:49
  TRACK 23 AUDIO
    TITLE "0:"
    INDEX 01 00:22:62
  TRACK 24 AUDIO
    TITLE "4:cjc114_4372"
    INDEX 01 00:23:03
  TRACK 25 AUDIO
    TITLE "0:"
    INDEX 01 00:25:35
  TRACK 26 AUDIO
    TITLE "2:cjc114_4373"
    INDEX 01 00:25:72
  TRACK 27 AUDIO
    TITLE "0:"
    INDEX 01 00:26:71
  TRACK 28 AUDIO
    TITLE "3:cjc114_4374"
    INDEX 01 00:27:08
  TRACK 29 AUDIO
    TITLE "0:"
    INDEX 01 00:28:29
  TRACK 30 AUDIO
    TITLE "4:cjc114_4375"
    INDEX 01 00:28:41
  TRACK 31 AUDIO
    TITLE "0:"
    INDEX 01 00:32:58
  TRACK 32 AUDIO
    TITLE "2:cjc114_4376"
    INDEX 01 00:33:21
  TRACK 33 AUDIO
    TITLE "0:"
    INDEX 01 00:34:22
  TRACK 34 AUDIO
    TITLE "3:cjc114_4377"
    INDEX 01 00:34:38
  TRACK 35 AUDIO
    TITLE "0:"
    INDEX 01 00:35:45
  TRACK 36 AUDIO
    TITLE "4:cjc114_4378"
    INDEX 01 00:35:59
  TRACK 37 AUDIO
    TITLE "0:"
    INDEX 01 00:39:68
  TRACK 38 AUDIO
    TITLE "2:cjc114_4379"
    INDEX 01 00:40:32
  TRACK 39 AUDIO
    TITLE "0:"
    INDEX 01 00:41:40
  TRACK 40 AUDIO
    TITLE "3:cjc114_4380"
    INDEX 01 00:41:53
  TRACK 41 AUDIO
    TITLE "0:"
    INDEX 01 00:42:63
  TRACK 42 AUDIO
    TITLE "4:cjc114_4381"
    INDEX 01 00:43:13
  TRACK 43 AUDIO
    TITLE "0:"
    INDEX 01 00:48:08
  TRACK 44 AUDIO
    TITLE "2:cjc114_4382"
    INDEX 01 00:48:51
  TRACK 45 AUDIO
    TITLE "0:"
    INDEX 01 00:49:69
  TRACK 46 AUDIO
    TITLE "3:cjc114_4383"
    INDEX 01 00:50:05
  TRACK 47 AUDIO
    TITLE "0:"
    INDEX 01 00:51:18
  TRACK 48 AUDIO
    TITLE "4:cjc114_4384"
    INDEX 01 00:51:40
  TRACK 49 AUDIO
    TITLE "0:"
    INDEX 01 00:54:05
  TRACK 50 AUDIO
    TITLE "2:cjc114_4385"
    INDEX 01 00:54:42
  TRACK 51 AUDIO
    TITLE "0:"
    INDEX 01 00:55:69
  TRACK 52 AUDIO
    TITLE "3:cjc114_4386"
    INDEX 01 00:56:08
  TRACK 53 AUDIO
    TITLE "0:"
    INDEX 01 00:57:13
  TRACK 54 AUDIO
    TITLE "4:cjc114_4387"
    INDEX 01 00:57:27
  TRACK 55 AUDIO
    TITLE "0:"
    INDEX 01 01:00:55
  TRACK 56 AUDIO
    TITLE "2:cjc114_4388"
    INDEX 01 01:01:17
  TRACK 57 AUDIO
    TITLE "0:"
    INDEX 01 01:02:22
  TRACK 58 AUDIO
    TITLE "3:cjc114_4389"
    INDEX 01 01:02:36
  TRACK 59 AUDIO
    TITLE "0:"
    INDEX 01 01:03:43
  TRACK 60 AUDIO
    TITLE "4:cjc114_4390"
    INDEX 01 01:03:59
  TRACK 61 AUDIO
    TITLE "0:"
    INDEX 01 01:06:45
  TRACK 62 AUDIO
    TITLE "2:cjc114_4391"
    INDEX 01 01:07:10
  TRACK 63 AUDIO
    TITLE "0:"
    INDEX 01 01:08:25
  TRACK 64 AUDIO
    TITLE "3:cjc114_4392"
    INDEX 01 01:08:38
  TRACK 65 AUDIO
    TITLE "0:"
    INDEX 01 01:09:40
  TRACK 66 AUDIO
    TITLE "4:cjc114_4393"
    INDEX 01 01:09:54
  TRACK 67 AUDIO
    TITLE "0:"
    INDEX 01 01:13:08
  TRACK 68 AUDIO
    TITLE "2:cjc114_4394"
    INDEX 01 01:13:45
  TRACK 69 AUDIO
    TITLE "0:"
    INDEX 01 01:14:45
  TRACK 70 AUDIO
    TITLE "3:cjc114_4395"
    INDEX 01 01:14:59
  TRACK 71 AUDIO
    TITLE "0:"
    INDEX 01 01:16:09
  TRACK 72 AUDIO
    TITLE "4:cjc114_4396"
    INDEX 01 01:16:24
  TRACK 73 AUDIO
    TITLE "0:"
    INDEX 01 01:19:05
  TRACK 74 AUDIO
    TITLE "2:cjc114_4397"
    INDEX 01 01:19:42
  TRACK 75 AUDIO
    TITLE "0:"
    INDEX 01 01:20:36
  TRACK 76 AUDIO
    TITLE "3:cjc114_4398"
    INDEX 01 01:20:61
  TRACK 77 AUDIO
    TITLE "0:"
    INDEX 01 01:21:70
  TRACK 78 AUDIO
    TITLE "4:cjc114_4399"
    INDEX 01 01:22:07
  TRACK 79 AUDIO
    TITLE "0:"
    INDEX 01 01:25:13
